<svg xmlns="http://www.w3.org/2000/svg" viewBox="0 0 917.15 275.36"><defs><style>.cls-1{fill:#005baa;}.cls-2{fill:#fff;}</style></defs><g id="Layer_2" data-name="Layer 2"><g id="Layer_1-2" data-name="Layer 1"><path class="cls-1" d="M781.81,252.14a23.32,23.32,0,1,1,23.31,23.22,23.27,23.27,0,0,1-23.31-23.22"/><path class="cls-1" d="M728.51,242a23.32,23.32,0,1,1,23.32,23.22A23.27,23.27,0,0,1,728.51,242"/><path class="cls-1" d="M682.86,210.93a23.32,23.32,0,1,1,23.32,23.22,23.27,23.27,0,0,1-23.32-23.22"/><path class="cls-1" d="M651.53,165a23.32,23.32,0,1,1,23.31,23.23A23.27,23.27,0,0,1,651.53,165"/><path class="cls-1" d="M641.16,111.74A23.32,23.32,0,1,1,664.48,135a23.27,23.27,0,0,1-23.32-23.22"/><path class="cls-1" d="M693.12,111.71C693.12,50,743.27,0,805.13,0s112,50,112,111.71S867,223.42,805.13,223.42s-112-50-112-111.71"/><path class="cls-1" d="M460.55,252.14a23.32,23.32,0,1,1,23.31,23.22,23.27,23.27,0,0,1-23.31-23.22"/><path class="cls-1" d="M407.37,241.9a23.32,23.32,0,1,1,23.32,23.22,23.27,23.27,0,0,1-23.32-23.22"/><path class="cls-1" d="M361.23,210.81A23.32,23.32,0,1,1,384.55,234a23.27,23.27,0,0,1-23.32-23.22"/><path class="cls-1" d="M330.39,164.91a23.32,23.32,0,1,1,23.32,23.23,23.27,23.27,0,0,1-23.32-23.23"/><path class="cls-1" d="M319.78,111.62a23.32,23.32,0,1,1,23.32,23.22,23.27,23.27,0,0,1-23.32-23.22"/><path class="cls-1" d="M372.47,111.64c0-61.59,50.14-111.52,112-111.52s112,49.93,112,111.52-50.15,111.53-112,111.53-112-49.93-112-111.53"/><path class="cls-1" d="M140.64,252A23.32,23.32,0,1,1,164,275.24,23.27,23.27,0,0,1,140.64,252"/><path class="cls-1" d="M87.35,242a23.32,23.32,0,1,1,23.31,23.23A23.26,23.26,0,0,1,87.35,242"/><path class="cls-1" d="M41.45,210.75A23.32,23.32,0,1,1,64.77,234a23.27,23.27,0,0,1-23.32-23.22"/><path class="cls-1" d="M10.55,164.85a23.32,23.32,0,1,1,23.32,23.23,23.27,23.27,0,0,1-23.32-23.23"/><path class="cls-1" d="M0,111.74A23.32,23.32,0,1,1,23.32,135,23.27,23.27,0,0,1,0,111.74"/><path class="cls-1" d="M52.19,111.64C52.19,50.05,102.34.12,164.21.12s112,49.93,112,111.52-50.15,111.53-112,111.53-112-49.93-112-111.53"/><path class="cls-2" d="M126.67,168V61h63.64c5.86,0,10.09,1.66,12.72,5S207,74.55,207,81.77V94.83q0,7.68-3.3,12.29a14.23,14.23,0,0,1-9.48,5.72,14.51,14.51,0,0,1,9.87,6.58q3.48,5.35,3.47,14v13.67q0,10.62-5.4,15.78T185.68,168Zm56.41-89.57H143.67v25.5h39.41c3,0,5.07-.57,6.22-1.72s1.72-3.13,1.72-6V86.12c0-2.76-.58-4.74-1.72-5.92S186.07,78.43,183.08,78.43Zm0,43.11H143.67v27.23h39.41q4.92,0,6.64-2.13c1.14-1.42,1.72-3.91,1.72-7.49v-8.09c0-3.58-.58-6.06-1.72-7.44S186.36,121.54,183.08,121.54Z"/><path class="cls-2" d="M509.24,79.75H460.63v23h46.29q10.89,0,14.72,5.36T525.47,128v14.67q0,14.58-3.83,19.94T506.92,168H461.05q-10.89,0-14.72-5.37t-3.82-19.94v-2.93l15.24-4.55v12.65h52.47V123.47H463.93q-10.81,0-14.61-5.37t-3.79-19.93V86.32q0-14.56,3.79-19.93T463.93,61h42.15q10.47,0,14.44,5.16t4,18.32v2.23l-15.24,5.16Z"/><path class="cls-2" d="M829.64,79.75H781v23h46.29q10.89,0,14.72,5.36T845.87,128v14.67q0,14.58-3.83,19.94T827.32,168H781.45q-10.89,0-14.72-5.37t-3.83-19.94v-2.93l15.25-4.55v12.65h52.47V123.47H784.33q-10.82,0-14.61-5.37t-3.79-19.93V86.32q0-14.56,3.79-19.93T784.33,61h42.15q10.46,0,14.43,5.16t4,18.32v2.23l-15.24,5.16Z"/></g></g></svg>